<mxfile host="app.diagrams.net" modified="2023-05-12T13:00:15.696Z" agent="Mozilla/5.0 (Windows NT 10.0; Win64; x64) AppleWebKit/537.36 (KHTML, like Gecko) Chrome/112.0.0.0 Safari/537.36 OPR/98.0.0.0" version="21.2.9" etag="g5feN7YH4dnLWRvzytsO" type="github">
  <diagram name="PÃ¡gina-1" id="MUu9ppXQ9ilaUUECbRpN">
    <mxGraphModel>
      <root>
        <mxCell id="0" />
        <mxCell id="1" parent="0" />
      </root>
    </mxGraphModel>
  </diagram>
</mxfile>
